HIERARCHY
ROOT Hips
{
  OFFSET 0 89.5177 0.535
  CHANNELS 6 Xposition Yposition Zposition Zrotation Xrotation Yrotation
  JOINT Spine
  {
    OFFSET 12.0259 -0.162855 1.69034e-005
    CHANNELS 3 Zrotation Xrotation Yrotation
    JOINT Spine1
    {
      OFFSET 15.3169 -0.0121922 0
      CHANNELS 3 Zrotation Xrotation Yrotation
      JOINT Spine2
      {
        OFFSET 15.3176 -0.0121908 0
        CHANNELS 3 Zrotation Xrotation Yrotation
        JOINT Neck
        {
          OFFSET 19.9142 1.56338 0
          CHANNELS 3 Zrotation Xrotation Yrotation
          JOINT Head
          {
            OFFSET 6.92651 0 0
            CHANNELS 3 Zrotation Xrotation Yrotation
            End Site
            {
              OFFSET 20.7666 0 0
            }
          }
          JOINT LeftShoulder
          {
            OFFSET -6.20654 0.708824 7.28219
            CHANNELS 3 Zrotation Xrotation Yrotation
            JOINT LeftArm
            {
              OFFSET 14.108 0 -1.52588e-005
              CHANNELS 3 Zrotation Xrotation Yrotation
              JOINT LeftForeArm
              {
                OFFSET 28.5802 0 0
                CHANNELS 3 Zrotation Xrotation Yrotation
                JOINT LeftHand
                {
                  OFFSET 27.092 0 0
                  CHANNELS 3 Zrotation Xrotation Yrotation
                  End Site
                  {
                    OFFSET 9.55928 -0.186424 0.145352
                  }
                }
              }
            }
          }
          JOINT RightShoulder
          {
            OFFSET -6.20654 0.708866 -7.28218
            CHANNELS 3 Zrotation Xrotation Yrotation
            JOINT RightArm
            {
              OFFSET 14.108 0 1.52588e-005
              CHANNELS 3 Zrotation Xrotation Yrotation
              JOINT RightForeArm
              {
                OFFSET 28.5802 0 0
                CHANNELS 3 Zrotation Xrotation Yrotation
                JOINT RightHand
                {
                  OFFSET 27.092 0 0
                  CHANNELS 3 Zrotation Xrotation Yrotation
                  End Site
                  {
                    OFFSET 9.55929 -0.186417 -0.145354
                  }
                }
              }
            }
          }
        }
      }
    }
  }
  JOINT LeftUpLeg
  {
    OFFSET 0.005 -0.535 8.837
    CHANNELS 3 Zrotation Xrotation Yrotation
    JOINT LeftLeg
    {
      OFFSET 39.9035 0 0
      CHANNELS 3 Zrotation Xrotation Yrotation
      JOINT LeftFoot
      {
        OFFSET 39.6689 0 0
        CHANNELS 3 Zrotation Xrotation Yrotation
        JOINT LeftToe
        {
          OFFSET 10.1624 13.6296 0
          CHANNELS 3 Zrotation Xrotation Yrotation
          End Site
          {
            OFFSET 8.38147 0 0
          }
        }
      }
    }
  }
  JOINT RightUpLeg
  {
    OFFSET 0.005 -0.535 -8.837
    CHANNELS 3 Zrotation Xrotation Yrotation
    JOINT RightLeg
    {
      OFFSET 39.9035 0 0
      CHANNELS 3 Zrotation Xrotation Yrotation
      JOINT RightFoot
      {
        OFFSET 39.6689 0 0
        CHANNELS 3 Zrotation Xrotation Yrotation
        JOINT RightToe
        {
          OFFSET 10.1624 13.6296 0
          CHANNELS 3 Zrotation Xrotation Yrotation
          End Site
          {
            OFFSET 8.38147 0 0
          }
        }
      }
    }
  }
}
MOTION
Frames:	11
Frame Time:	0.0333333
202.47 79.8392 -165.201 117.364 45.3253 -34.0494 1.15405 0.330074 1.2546 2.30066 0.685744 2.50252 2.30066 0.685744 2.50251 -8.3043e-012 -9.0191e-006 -5.27751e-005 -22.349 -9.39227 -1.19039 176.274 15.7869 -76.5405 -6.07825 -5.36823 67.7971 -93.1287 -7.95139e-016 -6.36111e-015 -74.6311 -42.4053 -89.4788 178.319 -4.96631 71.2758 -5.0992 14.091 -70.367 -83.2453 -1.59028e-015 -6.36111e-015 -75.3507 55.7009 79.0153 -29.4784 1.95904 -171.425 -67.3178 3.18055e-015 -0 40.5638 -3.66504 7.3857 90 2.38542e-015 -9.54166e-015 -63.615 22.7369 -179.502 -40.1538 3.18056e-015 -1.19271e-015 -4.94527 -8.53551 16.2495 90 7.95139e-016 -3.18055e-015 
191.05 78.9906 -161.773 116.769 53.5462 -32.3635 0.742926 -0.546284 0.521186 1.49089 -1.08527 1.04964 1.49089 -1.08527 1.04963 -8.30748e-012 -9.0191e-006 -5.27751e-005 -17.2828 -12.6823 -0.549732 177.431 14.8656 -80.0779 -6.03141 -17.9057 64.3776 -98.3666 0 -6.36111e-015 -73.6699 -45.8622 -88.284 179.098 -3.07351 73.6413 -15.1991 24.9776 -68.7234 -87.041 2.98177e-015 -0 -71.3784 55.3537 75.0133 -18.6236 -0.681819 -166.951 -64.1004 -1.59028e-015 -6.36111e-015 36.0783 -1.09152 2.10737 90 3.18055e-015 -0 -54.1727 19.5622 176.997 -45.9306 0 7.15625e-015 0.109493 -4.42501 9.96426 90 1.19271e-015 -0 
181.12 80.6348 -158.057 123.073 56.3984 -33.985 -0.764688 -0.6645 -1.04524 -1.54152 -1.31441 -2.09928 -1.54152 -1.31441 -2.09929 -8.3043e-012 -9.0191e-006 -5.27751e-005 -12.44 -17.1058 1.09019 178.281 14.8447 -83.3191 -12.7904 -33.4029 59.9244 -101.161 3.18055e-015 6.36111e-015 -70.0548 -44.8762 -83.9068 179.421 -2.52984 77.0965 -18.8594 37.162 -66.7254 -87.4464 -7.95139e-016 -0 -77.6015 52.8862 83.0211 -15.5732 0.536742 -164.987 -57.0239 -6.36111e-015 -9.54166e-015 22.3975 -1.21883 -1.01557 90 0 -9.54166e-015 -52.5826 8.78483 170.547 -52.3713 -3.18056e-015 -0 13.4025 -8.64347 17.0611 90 0 1.27222e-014 
172.243 86.9329 -153.671 120.668 57.4195 -32.2339 -1.14814 -0.623019 -1.57131 -2.31313 -1.21373 -3.15487 -2.31313 -1.21373 -3.15488 -8.31543e-012 -9.0191e-006 -5.27751e-005 -11.5287 -18.7977 2.47317 179.237 14.478 -86.9498 -23.2572 -44.4614 55.2345 -99.2959 -6.36111e-015 9.54166e-015 -66.6446 -40.9937 -77.2478 179.689 -2.49662 82.8979 -12.4059 46.2879 -73.2241 -83.1702 -6.36111e-015 -0 -84.8011 55.6716 92.8274 -9.92168 5.37336 -160.909 -42.8318 -3.18055e-015 -1.59028e-015 -4.94835 -4.7809 -2.28971 90 -4.77083e-015 1.59028e-015 -42.9439 -1.86068 170.922 -44.5854 3.18056e-015 1.59028e-015 13.5602 -10.58 21.2889 90 3.08116e-015 3.18055e-015 
164.39 95.0182 -148.848 127.283 63.2257 -36.7087 -2.07991 -2.04913 -2.19174 -4.24067 -4.01533 -4.46043 -4.24067 -4.01533 -4.46044 -8.30907e-012 -9.0191e-006 -5.27751e-005 -5.48577 -19.9236 4.71777 179.707 13.9544 -88.7834 -39.3271 -49.1053 48.363 -85.9476 3.18055e-015 -1.59028e-015 -63.0372 -39.0692 -72.2808 179.777 -2.1898 84.1843 -3.33075 48.211 -78.6706 -73.4977 -1.59028e-015 6.36111e-015 -99.7793 58.4801 109.483 -2.95854 12.2373 -160.872 -15.4516 -1.59028e-015 7.95139e-016 -34.1468 5.69105 -10.2141 90 -3.97569e-015 7.95139e-016 -27.4303 -5.93825 170.946 -24.1984 -6.36111e-015 -6.36111e-015 -1.74886 -10.7543 21.3543 90 -1.59028e-015 -3.18055e-015 
158.121 103.326 -144.034 146.193 68.9777 -50.2843 -2.79089 -3.42011 -3.45862 -5.79848 -6.66056 -7.09811 -5.79848 -6.66056 -7.09812 -8.30589e-012 -9.0191e-006 -5.27751e-005 -1.68376 -22.9567 6.14422 -179.947 14.5884 -90.2092 -64.3241 -53.8501 34.1457 -62.272 3.18055e-015 -3.18055e-015 -56.3642 -39.5706 -64.0078 179.871 -1.16825 83.7039 7.2591 49.9703 -81.0845 -63.0701 1.19271e-014 -6.36111e-015 -110.923 60.3309 121.804 -4.62426 12.7318 -165.293 -13.1222 1.19271e-015 -5.1684e-015 -21.6374 14.5492 -28.4083 90 -1.59028e-015 -0 -16.8044 -7.29879 169.11 -2.05615 3.18056e-015 -3.97569e-016 -37.3181 -8.8628 16.3046 90 1.59028e-015 6.36111e-015 
151.771 110.302 -140.613 157.907 71.1537 -62.0735 -2.86423 -3.86927 -3.59805 -5.98628 -7.54509 -7.40985 -5.98628 -7.54508 -7.40986 -8.30907e-012 -9.0191e-006 -5.27751e-005 -2.07277 -24.752 4.78689 -179.084 16.3648 -93.2482 -87.2083 -58.4144 19.0694 -39.6036 0 -0 -50.8146 -40.9123 -57.8366 -179.997 0.0316045 83.7417 14.3604 53.1559 -80.687 -52.3876 -4.17448e-015 3.18055e-015 -116.359 60.1836 128.969 -10.3039 16.5838 -165.383 -20.7447 0 1.98785e-015 -27.8789 9.48374 -17.4616 90 0 -1.59028e-015 -16.0305 -12.7302 171.178 -7.80352 3.18056e-015 -0 -40.1841 -13.0483 24.1729 90 1.27222e-014 -6.36111e-015 
145.66 116.116 -137.361 147.713 70.8404 -53.1686 -2.28225 -3.11561 -3.0272 -4.73643 -6.10307 -6.18945 -4.73643 -6.10307 -6.18946 -8.30748e-012 -9.0191e-006 -5.27751e-005 -6.32196 -25.0645 1.54041 -177.771 17.587 -97.3398 -105.048 -63.9965 5.33706 -26.8694 -9.54166e-015 -0 -55.1156 -43.9814 -66.0845 -179.851 1.54639 84.5037 15.304 59.7005 -76.9883 -42.6667 -1.98785e-015 -3.18055e-015 -121.539 59.1637 136.248 -11.1618 22.0854 -165.161 -27.255 -3.18055e-015 -0 -25.1072 3.86643 -6.96076 90 0 1.59028e-015 -15.7479 -5.99108 175.647 -17.1394 -3.18056e-015 -0 -41.3135 -15.4877 28.8233 90 0 9.54166e-015 
139.201 120.945 -133.611 143.932 70.0513 -49.1899 -2.25768 -3.16817 -2.75972 -4.67611 -6.22073 -5.65484 -4.67611 -6.22073 -5.65484 -8.30748e-012 -9.0191e-006 -5.27751e-005 -7.80445 -22.5583 0.662135 -178.003 15.9537 -97.2319 -104.353 -67.2277 9.58367 -25.0145 0 -0 -65.7349 -44.5973 -82.5391 -179.988 0.126806 84.7166 18.125 64.6197 -76.459 -35.9197 3.18055e-015 3.18055e-015 -123.921 60.7654 139.592 -8.96114 21.7498 -167.229 -28.1134 3.18055e-015 -3.18055e-015 -20.4935 4.95169 -9.08742 90 -1.59028e-015 2.38542e-015 -14.769 0.0279656 179.064 -18.8986 -3.18056e-015 -1.59028e-015 -37.7637 -15.9725 30.0514 90 0 -6.36111e-015 
132.814 125.327 -129.709 147.759 69.3249 -51.3531 -2.71837 -3.3168 -3.01442 -5.6215 -6.48143 -6.19801 -5.62151 -6.48143 -6.19802 -8.31225e-012 -9.0191e-006 -5.27751e-005 -7.67827 -21.9755 1.26376 -178.514 15.2255 -95.6402 -91.0119 -62.6708 26.0557 -30.3712 3.18055e-015 -1.59028e-015 -68.8436 -41.0403 -86.3539 179.967 -0.401932 85.3044 23.1734 69.0998 -78.4543 -29.7379 1.59028e-015 -1.27222e-014 -122.042 62.7621 140.171 -5.16713 18.4548 -170.756 -22.1835 2.78299e-015 2.78299e-015 -18.9908 9.75724 -18.4444 90 4.77083e-015 4.77083e-015 -13.5109 4.35613 -179.218 -14.2419 0 3.97569e-016 -32.533 -14.1213 26.6765 90 7.95139e-015 4.77083e-015 
126.699 128.655 -126.222 154.03 67.7425 -55.8261 -3.58892 -3.46024 -3.11788 -7.38046 -6.71232 -6.46352 -7.38046 -6.71232 -6.46353 -8.30669e-012 -9.0191e-006 -5.27751e-005 -8.28006 -22.1756 0.157036 -179.801 14.9571 -90.7683 -80.8594 -49.2383 38.6104 -39.543 -3.18055e-015 7.95139e-016 -67.5049 -42.3321 -84.223 179.956 -1.50108 88.3168 38.0693 74.2402 -90.4987 -22.7834 0 -3.18055e-015 -115.836 63.0713 136.149 -3.42201 13.649 -172.95 -16.418 4.96962e-016 7.15625e-015 -19.3425 12.9164 -25.0044 90 1.59028e-015 2.38542e-015 -15.0283 0.0195758 -179.348 -11.0203 -1.59028e-015 3.97569e-016 -27.7001 -12.4319 23.6115 90 1.59028e-015 -3.18055e-015 
